<?xml version="1.0" encoding="utf-8"?>
<!-- Generator: Adobe Illustrator 16.0.0, SVG Export Plug-In . SVG Version: 6.00 Build 0)  -->
<!DOCTYPE svg PUBLIC "-//W3C//DTD SVG 1.1//EN" "http://www.w3.org/Graphics/SVG/1.1/DTD/svg11.dtd">
<svg version="1.1" id="Layer_1" xmlns="http://www.w3.org/2000/svg" xmlns:xlink="http://www.w3.org/1999/xlink" x="0px" y="0px"
	 width="16px" height="13px" viewBox="0 0 491.385 406.693" enable-background="new 0 0 491.385 406.693"
	 xml:space="preserve">
<path fill="#717171" d="M437.544,190.517c-1.258-19.912-5.248-39.927-12.736-59.465C384.823,26.75,268.053-25.899,163.54,12.591l23.462,61.208
	c70.767-25.565,149.552,10.14,176.598,80.691c3.776,9.803,6.117,19.718,7.532,29.688L303,177.708l85.257,103.136l103.127-85.242
	L437.544,190.517z"/>
<path fill="#717171" d="M127.774,252.209c-3.759-9.807-6.103-19.747-7.549-29.714l68.143,6.495l-85.262-103.153L0,211.083l53.846,5.095
	c1.262,19.897,5.248,39.927,12.742,59.474C106.572,379.961,223.323,432.59,327.86,394.098l-23.464-61.201
	C233.619,358.475,154.822,322.76,127.774,252.209z"/>
</svg>
