<?xml version="1.0" encoding="utf-8"?>
<!-- Generator: Adobe Illustrator 16.0.0, SVG Export Plug-In . SVG Version: 6.00 Build 0)  -->
<!DOCTYPE svg PUBLIC "-//W3C//DTD SVG 1.1//EN" "http://www.w3.org/Graphics/SVG/1.1/DTD/svg11.dtd">
<svg version="1.1" id="Layer_1" xmlns="http://www.w3.org/2000/svg" xmlns:xlink="http://www.w3.org/1999/xlink" x="0px" y="0px"
	 width="16px" height="10px" viewBox="0 0 16 10" enable-background="new 0 0 16 10" xml:space="preserve">
<g>
	<g>
		<path fill="#2c2c2c" d="M15.1,1.5L8.6,6.2C8.3,6.5,7.8,6.6,7.4,6.6S6.5,6.5,6.2,6.2l-6-4.3v7.3C0.2,9.7,0.5,10,1,10h13.4
			c0.4,0,0.8-0.3,0.8-0.8V2.4C15.2,2.4,15.1,1.5,15.1,1.5z M7.7,4.8L14.4,0c0,0,0,0,0,0H1C0.8,0,0.7,0,0.5,0.1l6.5,4.7
			C7.2,4.9,7.5,4.9,7.7,4.8z"/>
	</g>
</g>
</svg>
