<?xml version="1.0" encoding="utf-8"?>
<!-- Generator: Adobe Illustrator 16.0.0, SVG Export Plug-In . SVG Version: 6.00 Build 0)  -->
<!DOCTYPE svg PUBLIC "-//W3C//DTD SVG 1.1//EN" "http://www.w3.org/Graphics/SVG/1.1/DTD/svg11.dtd">
<svg version="1.1" id="Layer_1" xmlns="http://www.w3.org/2000/svg" xmlns:xlink="http://www.w3.org/1999/xlink" x="0px" y="0px"
	 width="16px" height="14px" viewBox="0 0 16 14" enable-background="new 0 0 16 14" xml:space="preserve">
<path fill="#2c2c2c" d="M15.994,2.195C15.996,2.218,16,2.24,16,2.263c0,0.107-0.025,0.207-0.064,0.296l-1.183,5.166
	c-0.03,0.322-0.321,0.563-0.669,0.571c-0.012,0-0.023,0.004-0.035,0.004H4.936l0.105,1.024h9.009c0.323,0,0.585,0.296,0.585,0.66
	c0,0.365-0.262,0.66-0.585,0.66H4.6c-0.026,0.004-0.051,0.012-0.079,0.014c-0.376,0.031-0.707-0.223-0.738-0.57L2.458,1.32H0.585
	C0.262,1.32,0,1.025,0,0.66C0,0.295,0.262,0,0.585,0h2.244c0.086,0,0.167,0.022,0.24,0.059C3.41,0.066,3.698,0.306,3.728,0.628
	l0.154,0.975h11.533c0.29,0,0.528,0.239,0.576,0.551C15.992,2.167,15.993,2.181,15.994,2.195z M4.728,6.979h8.786l0.928-4.056H4.089
	L4.728,6.979z M6.341,11.359c0.754,0,1.366,0.591,1.366,1.32S7.096,14,6.341,14c-0.755,0-1.366-0.591-1.366-1.32
	C4.976,11.95,5.587,11.359,6.341,11.359z"/>
<path fill="#2c2c2c" d="M11.707,11.359c0.755,0,1.366,0.591,1.366,1.32S12.462,14,11.707,14c-0.754,0-1.366-0.591-1.366-1.32
	S10.953,11.359,11.707,11.359z"/>
</svg>
