<?xml version="1.0" encoding="utf-8"?>
<!-- Generator: Adobe Illustrator 24.0.1, SVG Export Plug-In . SVG Version: 6.00 Build 0)  -->
<svg version="1.1" id="Layer_1" xmlns="http://www.w3.org/2000/svg" xmlns:xlink="http://www.w3.org/1999/xlink" x="0px" y="0px"
	 width="22.1px" height="15.2px" viewBox="0 0 22.1 15.2" style="enable-background:new 0 0 22.1 15.2;" xml:space="preserve">
<style type="text/css">
	.st0{fill:#FFFFFF;}
</style>
<path class="st0" d="M14.8,13c-2.2,0-3.9,0-5.6,0c0,0,0,0-0.4,0c-0.4,1.3-1.3,2.2-2.6,2.2s-2.2-0.9-2.6-1.7c0,0,0,0-0.4,0
	C2.6,13,2.2,13,1.3,13c0-1.7,0-3,0-4.8c0.4,0,0.9,0,1.3,0c0,1.3,0,2.2,0,3.5c0.4,0,0.4,0,0.9,0l0,0C3.9,10.9,4.3,10,5.6,10
	c1.3-0.4,2.6,0,3,1.7c0,0,0,0,0.4,0c1.3,0,2.6,0,3.9,0l0,0c0-3.5,0-6.9,0-10.4c-4.3,0-8.7,0-13,0C0,0.9,0,0.4,0,0
	c4.8,0,9.6,0,14.3,0c0,0.9,0,1.7,0,2.6h0.4c1.7,0,3.5,0,5.6,0c0,0,0.4,0,0.4,0.4c0.4,1.3,0.9,2.6,1.3,4.3c0,0,0,0,0,0.4
	c0,1.7,0,3.5,0,5.2l0,0c0,0,0,0-0.4,0c-0.4,0-0.9,0-1.7,0c0,0,0,0-0.4,0c0,1.3-0.9,2.2-2.2,2.2C16.1,15.2,14.8,14.3,14.8,13L14.8,13
	z M20.8,11.7L20.8,11.7c0-1.3,0-2.6,0-3.9c0,0,0,0,0-0.4c-0.4-0.9-0.9-2.2-1.3-3c0,0,0-0.4-0.4-0.4c-1.3,0-3,0-4.3,0c0,0,0,0-0.4,0
	c0,2.6,0,5.2,0,7.4c0,0,0,0,0-0.4c0.9-0.4,1.7-1.3,3-1.3c0.9,0,2.2,0.4,2.6,1.7c0,0,0,0.4,0.4,0.4C20,11.7,20.4,11.7,20.8,11.7
	C20.4,11.7,20.8,11.7,20.8,11.7z M4.8,12.6c0,0.9,0.4,1.3,1.3,1.3s1.3-0.4,1.3-1.3c0-0.9-0.4-1.3-1.3-1.3
	C5.6,10.9,4.8,11.7,4.8,12.6z M18.7,12.6c0-0.9-0.4-1.3-1.3-1.3s-1.3,0.4-1.3,1.3c0,0.4,0.4,1.3,1.3,1.3
	C18.2,13.9,18.7,13,18.7,12.6z"/>
<path class="st0" d="M0.9,3.9c0-0.4,0-0.9,0-1.3c2.2,0,4.3,0,6.1,0c0,0.4,0,0.9,0,1.3C4.8,3.9,2.6,3.9,0.9,3.9z"/>
<path class="st0" d="M5.6,6.9c-1.3,0-2.6,0-3.9,0c0-0.4,0-0.9,0-1.3c1.3,0,2.6,0,3.9,0C5.6,6.1,5.6,6.5,5.6,6.9z"/>
</svg>
