<?xml version="1.0" encoding="utf-8"?>
<!-- Generator: Adobe Illustrator 24.0.1, SVG Export Plug-In . SVG Version: 6.00 Build 0)  -->
<svg version="1.1" id="Layer_1" xmlns="http://www.w3.org/2000/svg" xmlns:xlink="http://www.w3.org/1999/xlink" x="0px" y="0px"
	 width="22px" height="15.2px" viewBox="0 0 22 15.2" style="enable-background:new 0 0 22 15.2;" xml:space="preserve">
<style type="text/css">
	.st0{fill:#717171;}
</style>
<path class="st0" d="M14.8,13c-2.2,0-3.9,0-5.7,0c0,0,0,0-0.4,0c-0.4,1.3-1.3,2.2-2.7,2.2s-2.2-0.9-2.7-1.8c0,0,0,0-0.4,0
	C2.7,13,2.2,13,1.3,13c0-1.8,0-3,0-4.8c0.4,0,0.9,0,1.3,0c0,1.3,0,2.2,0,3.4c0.4,0,0.4,0,0.9,0l0,0c0.4-0.9,0.9-1.8,2.2-1.8
	c1.3-0.4,2.7,0,3,1.8c0,0,0,0,0.4,0c1.3,0,2.7,0,3.9,0l0,0c0-3.4,0-7,0-10.4c-4.2,0-8.6,0-12.9,0C0,0.9,0,0.4,0,0
	c4.8,0,9.5,0,14.3,0c0,0.9,0,1.8,0,2.7h0.4c1.8,0,3.4,0,5.7,0c0,0,0.4,0,0.4,0.4c0.4,1.3,0.9,2.7,1.3,4.3c0,0,0,0,0,0.4
	c0,1.8,0,3.4,0,5.2l0,0c0,0,0,0-0.4,0c-0.4,0-0.9,0-1.8,0c0,0,0,0-0.4,0c0,1.3-0.9,2.2-2.2,2.2C16.1,15.1,14.8,14.3,14.8,13L14.8,13
	z M20.9,11.8L20.9,11.8c0-1.3,0-2.7,0-3.9c0,0,0,0,0-0.4c-0.4-0.9-0.9-2.2-1.3-3c0,0,0-0.4-0.4-0.4c-1.3,0-3,0-4.3,0c0,0,0,0-0.4,0
	c0,2.7,0,5.2,0,7.3c0,0,0,0,0-0.4c0.9-0.4,1.8-1.3,3-1.3c0.9,0,2.2,0.4,2.7,1.8c0,0,0,0.4,0.4,0.4C20,11.8,20.4,11.8,20.9,11.8
	C20.4,11.8,20.9,11.8,20.9,11.8z M4.8,12.5c0,0.9,0.4,1.3,1.3,1.3s1.3-0.4,1.3-1.3c0-0.9-0.4-1.3-1.3-1.3
	C5.7,10.9,4.8,11.8,4.8,12.5z M18.6,12.5c0-0.9-0.4-1.3-1.3-1.3s-1.3,0.4-1.3,1.3c0,0.4,0.4,1.3,1.3,1.3
	C18.2,13.9,18.6,13,18.6,12.5z"/>
<path class="st0" d="M0.9,3.9c0-0.4,0-0.9,0-1.3c2.2,0,4.3,0,6.1,0C7,3,7,3.5,7,3.9C4.8,3.9,2.7,3.9,0.9,3.9z"/>
<path class="st0" d="M5.7,7C4.4,7,3,7,1.8,7c0-0.4,0-0.9,0-1.3c1.3,0,2.7,0,3.9,0C5.7,6.1,5.7,6.5,5.7,7z"/>
</svg>
