<?xml version="1.0" encoding="utf-8"?>
<!-- Generator: Adobe Illustrator 16.0.0, SVG Export Plug-In . SVG Version: 6.00 Build 0)  -->
<!DOCTYPE svg PUBLIC "-//W3C//DTD SVG 1.1//EN" "http://www.w3.org/Graphics/SVG/1.1/DTD/svg11.dtd">
<svg version="1.1" id="Layer_1" xmlns="http://www.w3.org/2000/svg" xmlns:xlink="http://www.w3.org/1999/xlink" x="0px" y="0px"
	 width="18.987px" height="17.992px" viewBox="0 0 18.987 17.992" enable-background="new 0 0 18.987 17.992" xml:space="preserve">
<path fill="#FFFFFF" d="M0.521,9.113c-0.72,0.369-0.689,0.908,0.064,1.201l2.233,0.863c0.754,0.291,1.896,0.133,2.536-0.356
	l9.699-7.473c0.638-0.491,0.706-0.418,0.152,0.162l-7.668,8.017c-0.556,0.579-0.392,1.287,0.365,1.573l0.261,0.1
	c0.757,0.286,1.991,0.767,2.742,1.064l2.478,0.987c0.752,0.298,1.368,0.546,1.369,0.55c0,0.004,0.004,0.019,0.008,0.02
	c0.004,0.001,0.182-0.625,0.394-1.388l3.775-13.559c0.213-0.765-0.2-1.09-0.919-0.722L0.521,9.113z"/>
<path fill="#FFFFFF" d="M6.651,17.987c-0.045,0.129,1.527-2.223,1.527-2.223c0.444-0.663,0.193-1.454-0.559-1.753l-1.714-0.686
	c-0.751-0.3-1.111,0.052-0.8,0.786C5.105,14.111,6.696,17.855,6.651,17.987z"/>
</svg>
