<?xml version="1.0" encoding="utf-8"?>
<!-- Generator: Adobe Illustrator 16.0.0, SVG Export Plug-In . SVG Version: 6.00 Build 0)  -->
<!DOCTYPE svg PUBLIC "-//W3C//DTD SVG 1.1//EN" "http://www.w3.org/Graphics/SVG/1.1/DTD/svg11.dtd">
<svg version="1.1" id="Layer_1" xmlns="http://www.w3.org/2000/svg" xmlns:xlink="http://www.w3.org/1999/xlink" x="0px" y="0px"
	 width="15px" height="15px" viewBox="0 0 16 16" enable-background="new 0 0 16 16" xml:space="preserve">
<path fill="#808080" d="M15.873,13.982l-3.583-3.623c0.583-1.018,1.114-2.518,1.114-3.657C13.404,3.007,10.396,0,6.702,0
	S0,3.007,0,6.702c0,3.695,3.009,6.703,6.702,6.703c1.179,0,2.562-0.528,3.601-1.147l3.566,3.611c0.08,0.079,0.193,0.129,0.309,0.129
	c0.114,0,0.229-0.045,0.309-0.129l1.388-1.274C16.042,14.421,16.042,14.151,15.873,13.982z M6.702,2.357
	c2.396,0,4.344,1.949,4.344,4.345S9.1,11.046,6.702,11.046c-2.396,0-4.344-1.948-4.344-4.344S4.306,2.357,6.702,2.357z"/>
</svg>
